/* XPM */
static char *result[] = {
/* columns rows colors chars-per-pixel */
"32 32 6 1 ",
"  c #45283C",
". c #663931",
"X c #8F563B",
"o c #CBDBFC",
"O c white",
"+ c None",
/* pixels */
"++++++++++++++++++++++++++++++++",
"++++++++++++++++++++++++++++++++",
"++++++++++++++++++++++++++++++++",
"++++++++++++++++++++++++++++++++",
"++++++++++++++++++++++++++++++++",
"++++++++++++++++++++++++++++++++",
"++++++++++++++++++++++++++++++++",
"++++++++++++++++++++++++++++++++",
"++++++++++++++++++++++++++++++++",
"+++++++++++++OO+++++++++++++++++",
"+++++++++++++ooO+++OOOOO++++++++",
"++++++OOOO+++X..OOOOOOOOOO++++++",
"++++OOOOOOOOO ..OooOOoooooOOO+++",
"+++oOOOOOoOOO ... .ooo....oooO++",
"+++oooOOoooooo    ...........o++",
"+++..oooo... ..    .  ........++",
"+++...........................++",
"+++...OOOO....XoOO....XooOOoO.++",
"+++......oO..                .++",
"+++................        ...++",
"+++........................  +++",
"+++..                        +++",
"++++ ..            ......   ++++",
"+++++      +++++++         +++++",
"++++++++++++++++++++++++++++++++",
"++++++++++++++++++++++++++++++++",
"++++++++++++++++++++++++++++++++",
"++++++++++++++++++++++++++++++++",
"++++++++++++++++++++++++++++++++",
"++++++++++++++++++++++++++++++++",
"++++++++++++++++++++++++++++++++",
"++++++++++++++++++++++++++++++++"
};
