/* XPM */
static char *result[] = {
/* columns rows colors chars-per-pixel */
"32 32 6 1 ",
"  c #3E734E",
". c #7AB055",
"X c #4D9262",
"o c #CBDBFC",
"O c white",
"+ c None",
/* pixels */
"+  XooOOOXXOOOOOoXXXXooooo  X O+",
"+   XXooXXoOOOOoXXXXXXX X    Oo+",
"     XXXXXXooooOOOXXX       Oo +",
"         XXXXOOOOOoXXXXXXOOOo   ",
" O XXXXXXOOXoOOOOooOXXXXOOXXX   ",
" OOOX OooOooOOOoooOOO.oOOoX     ",
" OOOOX   o XoOOOOOOOOOooX       ",
" oOOOX    X.oOOOOOOOOOOoo  XX   ",
" oOOooX   OOOo.XOOOOOOO  XXXXX  ",
" XoOOOOX oOoo.X.OoOOOOOo.X..XX  ",
" XXooOOoXXoX..OooXoOOOOo ..XXX  ",
"+ XX.oooXXX.X.X.XXXOOoo  XXX    ",
"++   XXOO.XOOOOXXOOOo    X     +",
"+++    Ooo. oooOOooo          ++",
"++++  ooo...       XXX       +++",
"++++++ X...XXXXXXXXXXXX O   ++++",
"+++++ XOOX.X.XXOOOOOOOOOo  +++++",
"++++ XOOOOOXXOOOOOOOo ooX   ++++",
"++++ XoooOOoOXXXoOOo X X   +++++",
"++++ XXXXooXXXXXXoo X X X  +++++",
"+++OOOXX X XXXXXXXXXXXXX   +++++",
"+++OOOXXX X X XXXXXXXXX X   ++++",
"+++OOO.XXX X X X XXXXXXX  O  +++",
"+++oOOX.XXX     X XXXOOXOOOO +++",
"+++oOOOX.XXX     XXXOOOOOooo +++",
"+++ oOOOX.XXXOOOOOXXOOOOoXX   ++",
"+++  OOOOX.OOooooOOOOOoo X    ++",
"++  oooOOOOOXX   ooooo  X X    +",
"+ OOo  oooooXXXX       X X X   +",
"+ OOO      XXXXXXX   XX X O    +",
"+ oOOO.XXXXXXXXXXXXXXXXXOOOo   +",
"+  oOOO.XXXXXXXXXXXXXXOOOOo    +"
};
