/* XPM */
static char *result[] = {
/* columns rows colors chars-per-pixel */
"32 32 7 1 ",
"  c #43403E",
". c #595652",
"X c #696A6A",
"o c #847E87",
"O c #9BADB7",
"+ c #CBDBFC",
"@ c white",
/* pixels */
"@@@@@@@@@@@@@@@@@@@@@@@@@@@@@@@@",
"@@@@@@@@@@@@@@@@@@@@@@O@@@@@@@@@",
"@@@@@@@@@@@@@@@@@@@@@O@O@@@@@@@@",
"@@@@@@@@@@@@@@@@@@@@@@O@@@@@@@@@",
"@@@@@@@@@@@@@@@@@@@@@@@@@@@@@@@@",
"@@@@@@@@@@@@@@@@@@@@@@@@@@@@@@@@",
"@@@@@@@@@@@@@@@@@+@@@@@@@@@@@@@@",
"@@@@@@@@@@@@@@@@@++@@@@@@@@@@@@@",
"@@@@@@+@@@@@@@@@@++@@+@@@@@@@@@@",
"@@@@@@+@@@@@@@@@@@+O++@@@@@@@@@@",
"@@@@@@+@+@@@@@@@@@O++O@@@@@@@@@@",
"@@@@@@+@+@@@@@@@@@@OO@@@@@@@@@@@",
"@@@@@@@@+@@@@@@@@@@@@@@@@@@@@@@@",
"@@@@@@@@@@@@@@@@@@@@@@@@@@@@@@@@",
"@@@@@@@@@@@@@@@@@@@@@@@@@@@@@@@@",
"+@@@@@@@@@@@@@@@@@@@@@@@@@@@@@@@",
"...  @@@@@......................",
"XX.... @ .XXXXXooooooXXXXXXXXXXX",
"ooXXXX. .XXooooooooooooooooooooo",
"oooXXX..XXoooooooooooooooooooooo",
"ooooXX..XXooXXoooooooooXXXXXXooo",
"oooXX. ..XXXXooooooooooooXXooooo",
"XXX..   ....XXXXXXXXXooooooooooX",
"... .... .............XXXXXXX...",
"......XX............. .......  .",
"XXXX.XXXXXooooXXXXXXX...   ....X",
"oooXXXXoooooooooooooooXX. .XXXoo",
"ooooXooooooooooooooooooXX..XXooo",
"ooooooooooooooooooooooXXX..XXooo",
"ooooooooooooooooooooXXXXX. .XXoo",
"XXXXooooXXXXXXXXXXXXXXXX.   .XXX",
"....XXXX................  .. ..."
};
