/* XPM */
static char *result[] = {
/* columns rows colors chars-per-pixel */
"32 32 7 1 ",
"  c #43403E",
". c #595652",
"X c #696A6A",
"o c #847E87",
"O c #9BADB7",
"+ c #CBDBFC",
"@ c white",
/* pixels */
"@@@@@@@@@@@@@@@@..........XX....",
"@@@@@@@@@@@@@@@.XoXoooXXXXXX.XXX",
"@@@@@@@@@@@@@@@.XoooooooooooXXoo",
"@@@@@@@@@@@@@@@.oooooooooooooXoo",
"@@@@@@@@@@@@@@@.oooXoooooooooooo",
"@@@@@@@@@@@@@@@.XooXoooooooooooo",
"@@@@@@@@@@@@@@@+Xoo.Xooooooooooo",
"@@@@@@@@@@@@@@@@....XXXXX.......",
"@@@@@@+@@@@@@@@@@...............",
"@@@@@@+@@@@@@@@@.Xo..   .XX..XXo",
"@@@@@@+@+@@@@@@.XooXX. .XoXXXooo",
"@@@@@@+@+@@@@@@.oooXX..XooXXoooo",
"@@@@@@@@+@@@@@@.XooXX..Xoooooooo",
"@@@@@@@@@@@@@@@.XXoX. .Xoooooooo",
"@@@@@@@@@@@@@@@.XXX.  ..XXXXXXXX",
"+@@@@@@@@@@@@@@@......  ........",
"@+@@@@@@@@@@@@@@...XXXX.........",
"+@@@@@@@@@@@@@@.XXXooXXXXXXXXXXX",
"@@@@@@@@@@@@@@@.Xooooooooooooooo",
"@@@@@@@@@@@@@@@.oooooooooooooooo",
"@@@@@@@@@@@@@@@.ooXooooXXXXXXooo",
"@@@@@@@@@@O@@@@.XooooooooXXooooo",
"@@@@@@@@@O@O@@@.XXXXXooooooooooX",
"@@@@@@@@@@O@@@@@......XXXXXXX...",
"@@@@@@@@@@@@@@@@..... .......  .",
"@@@@@@@@@@@@@@@.XXoXX...   ....X",
"@@@@@@@@@@@@@@@.XoooooXX. .XXXoo",
"@@@@@@@@@@@@@@@.oooooooXX..XXooo",
"@@@@@@@@@@@@@@@.ooooooXXX..XXooo",
"@@@@@@@@@@@@@+@.XoooXXXXX. .XXoo",
"@@@@@@@@@@@@+@+.XXXXXXXX.   .XXX",
"@@@@@@@@@@@@@+@@........  .. ..."
};
