/* XPM */
static char *result[] = {
/* columns rows colors chars-per-pixel */
"32 32 15 1 ",
"  c #7A0000",
". c #534721",
"X c #AB0000",
"o c #E30000",
"O c #8B5E4A",
"+ c #9D725D",
"@ c #978300",
"# c #D7906E",
"$ c #AAAAAD",
"% c #EEBE93",
"& c #FFE1AF",
"* c #CACACC",
"= c gray91",
"- c white",
"; c None",
/* pixels */
";;;;;;;;;;;;;;;;;;;;;;;;;;;;;;;;",
";;;;;;;;;;;;;       ;;;;;;;;;;;;",
";;;;;;;;;;;  XoooooX  ;;;;;;;;;;",
";;;;;;;;;; XXoooooooXX ;;;;;;;;;",
";;;;;;;;; XXoooooooooXX ;;;;;;;;",
";;;;;;;; XXoooooooooooXX ;;;;;;;",
";;;;;;; XXoooooooooooooXX ;;;;;;",
";;;;;;; XoXX*********XXoX ;;;;;;",
";;;;;; XXX**---------**XXX ;;;;;",
";;;;;; XX*-------------*XX ;;;;;",
";;;;;; X*=--=========--=*X ;;;;;",
";;;;;; $=-==*********==-=$ ;;;;;",
";;;;;;$===**$$*###*$$**===$;;;;;",
";;;;;$*==*$=---*%*---=$*==*$;;;;",
";;;;;$***$=--=*&&&*=--=$***$;;;;",
";;;;;$**$===**&&&&&**===$**$;;;;",
";;;;;;$$*$$*&&&&&&&&&*$$*$$;;;;;",
";;;;;;;$=*%&&&*****&&&%*=$;;;;;;",
";;;;;;;$==***=-----=***==$;;;;;;",
";;;;;;; $==----===----==$ ;;;;;;",
";;;;;; Xo$==--=---=---=*XX ;;;;;",
";;;;; XooX$==---------*$XXX$;;;;",
";;;;; ooo X$*=-------=* XX*$;;;;",
";;;;;*--=*XXX$==----=*$ $*$.;;;;",
";;;;$=---*.XXX$*==-=*$..;..;;;;;",
";;;;$.&&&#..X.@@$*=*$...;;;;;;;;",
";;;;;.%&&.X.X.@@@@$.X.X ;;;;;;;;",
";;;;;;...$=Xooooo----=*$;;;;;;;;",
";;;;;;;;;$*===--------=$;;;;;;;;",
";;;;;;;;;;$$***===XooX*;;;;;;;;;",
";;;;;;;;;;;;...;; o++O ;;;;;;;;;",
";;;;;;;;;;;;;;;;;.O+++.;;;;;;;;;"
};
