/* XPM */
static char *result[] = {
/* columns rows colors chars-per-pixel */
"32 32 14 1 ",
"  c #7A0000",
". c #534721",
"X c #AB0000",
"o c #E30000",
"O c #8B5E4A",
"+ c #9D725D",
"@ c #D7906E",
"# c #AAAAAD",
"$ c #EEBE93",
"% c #FFE1AF",
"& c #CACACC",
"* c gray91",
"= c white",
"- c None",
/* pixels */
"--------------------------------",
"--------------        ----------",
"------------  XXooooXX  --------",
"----------- XXooooooooXX  ------",
"---------- XooooooooooooXX -----",
"--------- XooooooooooooooXX ----",
"-------- XXXooooooooooooooXX ---",
"--------#&&&&oooooooooooooXX ---",
"-------#&*==**&&ooooooXooooXX --",
"-------#&*======*&XooooXXooXX --",
"-------#&&*======*&XXooX XXXX --",
"--------.@@&&**===*&XXooX XXXX -",
"--------.@$$##&&*==*&XXoX   XX -",
"--------.$$==**#&*==*&XXXX #  #-",
"--------.$&*===*#&**=*#XXX #&&&#",
"--------.$%&*===&&#&***#XX #&&&#",
"--------#$%%&&***#%#&**&#  #&&#-",
"-------#**&&%%&##=@@#&&&# --##--",
"-------#*==*&%%%*=%&&#&&#-------",
"------#&&*==*&&*=*&&# ##--------",
"------#*==*=====*&&XX  ---------",
"------#*========*&XooX ---------",
"-------&*======*& XoooX --------",
"-------#&====*&Xoo Xo=*#--------",
"--------#*==*#...X. ==*&#-------",
"---------#&*#....X.&=*$@.-------",
"---------XX#ooooooo#$%%$.-------",
"---------#&==ooooooo.%%.--------",
"---------#&**====**&&..---------",
"----------.++&&**&&###----------",
"----------.+O XX -...-----------",
"-----------.....----------------"
};
