/* XPM */
static char *result[] = {
/* columns rows colors chars-per-pixel */
"32 32 16 1 ",
"  c #7A0000",
". c #534721",
"X c #77584A",
"o c #AB0000",
"O c #E30000",
"+ c #8B5E4A",
"@ c #9D725D",
"# c #978300",
"$ c #D7906E",
"% c #AAAAAD",
"& c #EEBE93",
"* c #FFE1AF",
"= c #CACACC",
"- c gray91",
"; c white",
": c None",
/* pixels */
"::::::::::::::        ::::::::::",
"::::::::::::  ooOOOOoo  ::::::::",
"::::::::::: ooOOOOOOOOoo  ::::::",
":::::::::: oOOOOOOOOOOOOoo :::::",
"::::::::: oOOOOOOOOOOOOOOoo ::::",
":::::::: oooOOOOOOOOOOOOOOoo :::",
"::::::::%====OOOOOOOOoOOOOOo :::",
":::::::%=-;;--==OOOOOOooOOOoo ::",
":::::::%=-;;;;;;-=oOOOOoooOOo ::",
":::::::%==-;;;;;;-=ooOOo ooOo ::",
"::::::::.$$==--;;;-=ooOOo ooOo :",
"::::::::.$&&%%==-;;-=ooOo  ooo :",
"::::::::.&&;;--%=-;;-=oooo  oo :",
"::::::::.&=-;;;-%=--;-%ooo %  %:",
"::::::::.&*=-;;;==%=---%oo %-=-%",
"::::::::%&**==---%*%=--=%  =-;-=",
":::::::%--==**=%%;$$%===% :%=-=%",
":::::::%-;;-=***-;*==%==%:::%%%:",
"::::::%==-;;-==-;-==% %%::::::::",
"::::::%-;;-;;;;;-==o   :::::::::",
"::::::%-;;;;;;--==oOo  :::::::::",
"::::::%-;;;;--==o OOO  :::::::::",
":::::::=-;--==ooO OOO .:::::::::",
":::::::%--=%o....=-;;%.:::::::::",
"::::::::=%#.o....-;;;%  ::::::::",
"::::::::%ooOOOOOO.**&.o ::::::::",
":::::::::%=OOOOOO.**$.o%::::::::",
"::::::::::%=-;;;;;...=%:::::::::",
":::::::::::%==------=%::::::::::",
"::::::::::::: ooooo  :::::::::::",
"::::::::::::::.@@+X.::::::::::::",
":::::::::::::::....:::::::::::::"
};
