/* XPM */
static char *result[] = {
/* columns rows colors chars-per-pixel */
"32 32 16 1 ",
"  c #7A0000",
". c #534721",
"X c #77584A",
"o c #AB0000",
"O c #E30000",
"+ c #8B5E4A",
"@ c #9D725D",
"# c #978300",
"$ c #D7906E",
"% c #AAAAAD",
"& c #EEBE93",
"* c #FFE1AF",
"= c #CACACC",
"- c gray91",
"; c white",
": c None",
/* pixels */
"::::::::::::::::::::::::::::::::",
"::::::::::::::        ::::::::::",
"::::::::::::  ooOOOOoo  ::::::::",
"::::::::::: ooOOOOOOOOoo  ::::::",
":::::::::: oOOOOOOOOOOOOoo :::::",
"::::::::: oOOOOOOOOOOOOOOoo ::::",
":::::::: oooOOOOOOOOOOOOOOoo :::",
"::::::::%====OOOOOOOOOOOOOOo :::",
":::::::%=-;;--==OOOOOOooOOOOo ::",
":::::::%=-;;;;;;-=oOOOOooOOOo ::",
":::::::%==-;;;;;;-=ooOOo oOOO ::",
"::::::::.$$==--;;;-=ooOOo oOOo :",
"::::::::.$&&%%==-;;-=ooOo  oOo :",
"::::::::.&&;;--%=-;;-=oooo %-=%:",
"::::::::.&=-;;;-%=--;-%ooo =-;-%",
"::::::::.&*=-;;;==%=---%oo =;;-=",
"::::::::%&**==---%*%=--=%  %--=%",
":::::::%--==**=%%;$$%===% ::%%%:",
":::::::%-;;-=***-;*==%==%:::::::",
"::::::%==-;;-==-;-==% %%::::::::",
"::::::%-;;-;;;;;-==oo  :::::::::",
"::::::%-;;;;;;--==oOo  :::::::::",
"::::::%-;;;;--==o oOO  :::::::::",
"::::::%-;;-==ooo%oOOO .:::::::::",
"::::::%=;-%.o..%-;OOo .:::::::::",
":::::::=%##.o..*;;;o o  ::::::::",
":::::::::oooOO.**-=%OOo ::::::::",
":::::::::%=ooO.&**%O-=%%::::::::",
"::::::::::%===-...;;;-%:::::::::",
"::::::::::.%%==----+@.::::::::::",
":::::::::::...  oo+@X.::::::::::",
"::::::::::::::::.....:::::::::::"
};
