/* XPM */
static char *result[] = {
/* columns rows colors chars-per-pixel */
"32 32 16 1 ",
"  c #7A0000",
". c #534721",
"X c #77584A",
"o c #AB0000",
"O c #E30000",
"+ c #8B5E4A",
"@ c #9D725D",
"# c #978300",
"$ c #D7906E",
"% c #AAAAAD",
"& c #EEBE93",
"* c #FFE1AF",
"= c #CACACC",
"- c gray91",
"; c white",
": c None",
/* pixels */
"::::::::::::::::::::::::::::::::",
":::::::::::        :::::::::::::",
":::::::::  ooOOOOoo  :::::::::::",
":::::::  ooOOOOOOOOoo ::::::::::",
":::::: ooOOOOOOOOOOOOo :::::::::",
"::::: ooOOOOOOOOOOOOOOo ::::::::",
":::: ooOOOOOOOOOOOOOOooo :::::::",
":::: oOOOOOOOOOOOOOO====%:::::::",
"::: oOOOOooOOOOOO==--;;-=%::::::",
"::: oOOOooOOOOo=-;;;;;;-=%::::::",
"::: OOOo oOOoo=-;;;;;;-==%::::::",
":: oOOo oOOoo=-;;;--==$$.:::::::",
":: oOo  oOoo=-;;-==%%&&$.:::::::",
"::%=-% oooo=-;;-=%--;;&&.:::::::",
":%-;-= ooo%-;--=%-;;;-=&.:::::::",
":=-;;= oo%---=%==;;;-=*&.:::::::",
":%=--%  %=--=%*%---==**&%:::::::",
"::%%%:: %===%$$;%%=**==--%::::::",
"::::::::%==%==*;-***=-;;-%::::::",
":::::::::%% %==-;-==-;;-==%:::::",
"::::::::::  oo==-;;;;;-;;-%:::::",
"::::::::::  oOo==--;;;;;;-%:::::",
"::::::::::  OOo o==--;;;;-%:::::",
"::::::::::. OOOo%ooo==-;;-%:::::",
"::::::::::. oOO;-%..o.%-;=%:::::",
":::::::::  o o;;;*..o.##%=::::::",
"::::::::: oOO%=-**.OOooo::::::::",
":::::::::%%=-O%**&.Ooo=%::::::::",
"::::::::::%-;;;...-===%:::::::::",
":::::::::::.@+----==%%.:::::::::",
":::::::::::.X@+oo  ...::::::::::",
"::::::::::::.....:::::::::::::::"
};
