/* XPM */
static char *result[] = {
/* columns rows colors chars-per-pixel */
"32 32 13 1 ",
"  c #7A0000",
". c #534721",
"X c #AB0000",
"o c #E30000",
"O c #8B5E4A",
"+ c #9D725D",
"@ c #AAAAAD",
"# c #EEBE93",
"$ c #FFE1AF",
"% c #CACACC",
"& c gray91",
"* c white",
"= c None",
/* pixels */
"================================",
"=============       ============",
"===========  XoooooX  ==========",
"========== XXoooooooXX =========",
"========= XXoooooooooXX ========",
"======== XXoooooooooooXX =======",
"======= XXooooooooooooXXX ======",
"======= XooooooooooooooXX ======",
"====== XXooooooooooooooXXX =====",
"====== XXXoooooooooooooXXX =====",
"====== XXXoooooooooooooXXX =====",
"====== XXXXooooooooooooXXX =====",
"====== XXXXXooooooooooo XX =====",
"=====@ XXX XXXooooooooX XX @====",
"=====@@XXXX XXXoooooooX XX@@====",
"=====@%%XXXX  XXXooooo XX%%@====",
"=====@%&%XXXX   XXXooX X%&%@====",
"======@%&%%      @&X&@&%&%@=====",
"=======@%&*****&&%***&@&%@======",
"======= @%&&****&@***&@%@ ======",
"====== Xoo@@%%%%%%@&&%@XoX =====",
"===== XoooXXXXXXXXX@@@XXoX =====",
"====@%&ooXXooooooooXXXo XXX@====",
"====@&*** XoooooooooooX XX@@====",
"====.#$*&..XoooooooooX..%%@=====",
"====.#$$....X...X...X...@@======",
"=====...= X.X...X...X.X ========",
"=========@%Xooooooooo&&@========",
"=========@%%&&&*******&@========",
"==========@@%%&&&&XooX&=========",
"============...== OOOo =========",
"=================.O+++.========="
};
