/* XPM */
static char *result[] = {
/* columns rows colors chars-per-pixel */
"32 32 6 1 ",
"  c #272736",
". c #57294B",
"X c #964253",
"o c #E36956",
"O c #FFB570",
"+ c None",
/* pixels */
"++++++++++++++++++++++++++++++++",
"++++++++++++++++++++++++++++++++",
"++++++++++++++++++++++++++++++++",
"++++++++++++++++++++++++++++++++",
"++++++++++++++++++++++++++++++++",
"++++++++++++++++++++++++++++++++",
"++++++++++++++++++++++++++++++++",
"++++++++++++++++++++++++++++++++",
"++++++++                   +++++",
"+++++++ oooooooXoooooooooX +++++",
"++++++ oooooooXoooooooooXX +++++",
"+++++ oooooooXoooooooooXXX +++++",
"++++ oooooooXoooooooooXXXX +++++",
"++++ OOOOOOOOOOOOOOOOOXXXX +++++",
"++++ OOOOOOOOOOOOOOOOOXXXX +++++",
"++++ OOOOOOOOOOOOOOOOOXXXX +++++",
"++++ OOOOOOOOOOOOOOOOOXXXX +++++",
"++++ OOOOOOOOOOOoooooOXXX. +++++",
"++++ OOOOOOOOOOOOOOOOOXX.X +++++",
"++++ OOOOOOOOOOOOoooOOX..X +++++",
"++++ OOOOOOOOOOOOooXOOX..X +++++",
"++++ OoXoXOOOOOOOoXXOOX.XX +++++",
"++++ OOOOOOOOOOOOXXXOOXXX ++++++",
"++++ OoXXXOOOOOOOOOOOOXX +++++++",
"++++ OOOOOOOOOOOOOOOOOX ++++++++",
"++++                   +++++++++",
"++++++++++++++++++++++++++++++++",
"++++++++++++++++++++++++++++++++",
"++++++++++++++++++++++++++++++++",
"++++++++++++++++++++++++++++++++",
"++++++++++++++++++++++++++++++++",
"++++++++++++++++++++++++++++++++"
};
