/* XPM */
static char *result[] = {
/* columns rows colors chars-per-pixel */
"32 32 7 1 ",
"  c #43403E",
". c #595652",
"X c #696A6A",
"o c #847E87",
"O c #9BADB7",
"+ c #CBDBFC",
"@ c white",
/* pixels */
"........ .......@@@@@@@@@@@@@@@@",
"XXX..   .XXXXXoX.@@@@@O@@@@@@@@@",
"oXXXX. .XXoooooX.@@@@O@O@@@@@@@@",
"ooXXX..XXXoooooo.@@@@@O@@@@@@@@@",
"ooXXX..XXXoooooo.@@@@@@@@@@@@@@@",
"ooXXX. .XXXooooX.@@@@@@@@@@@@@@@",
"XXX..   ..XXoooX++@@@@@@@@@@@@@@",
"... ............@++@@@@@@@@@@@@@",
"....XXXXXX......@++@@+@@@@@@@@@@",
"ooooooooooooooXX.@+O++@@@@@@@@@@",
"oooooooooooooooX.@O++O@@@@@@@@@@",
"oooooooooooooooo.@@OO@@@@@@@@@@@",
"oooooooooooooooX.@@@@@@@@@@@@@@@",
"ooooooooooooooXX.@@@@@@@@@@@@@@@",
"XXXooXXXoooXXXXX.@@@@@@@@@@@@@@@",
"................@@@@@@@@@@@@@@@@",
"..        ......................",
"XX....   .XXXXXooooooXXXXXXXXXXX",
"ooXXXX. .XXooooooooooooooooooooo",
"oooXXX..XXoooooooooooooooooooooo",
"ooooXX..XXooXXoooooooooXXXXXXooo",
"oooXX. ..XXXXooooooooooooXXooooo",
"XXX..   ....XXXXXXXXXooooooooooX",
"... .... .............XXXXXXX...",
"......XX............. .......  .",
"XXXX.XXXXXooooXXXXXXX...   ....X",
"oooXXXXoooooooooooooooXX. .XXXoo",
"ooooXooooooooooooooooooXX..XXooo",
"ooooooooooooooooooooooXXX..XXooo",
"ooooooooooooooooooooXXXXX. .XXoo",
"XXXXooooXXXXXXXXXXXXXXXX.   .XXX",
"....XXXX................  .. ..."
};
