/* XPM */
static char *result[] = {
/* columns rows colors chars-per-pixel */
"32 32 6 1 ",
"  c #43403E",
". c #595652",
"X c #696A6A",
"o c #847E87",
"O c #CBDBFC",
"+ c white",
/* pixels */
"++++++++++++++++..........XX....",
"+++++++++++++++.XoXoooXXXXXX.XXX",
"+++++++++++++++.XoooooooooooXXoo",
"+++++++++++++++.oooooooooooooXoo",
"+++++++++++++++.oooXoooooooooooo",
"+++++++++++++++.XooXoooooooooooo",
"+++++++++++++++OXoo.Xooooooooooo",
"++++++++++++++++....XXXXX.......",
"++++++O+++++++++................",
"++++++O++++++++.XXo..   .XX..XXo",
"++++++O+O++++++.XooXX. .XoXXXooo",
"++++++O+O++++++.oooXX..XooXXoooo",
"++++++++O++++++.XooXX..Xoooooooo",
"+++++++++++++++.XXoX. .Xoooooooo",
"+++++++++++++++.XXX.  ..XXXXXXXX",
"O+++++++++++++++......  ........",
"...  +++ ..........XXXX.........",
"XX....   .XXXXXooooooXXXXXXXXXXX",
"ooXXXX. .XXooooooooooooooooooooo",
"oooXXX..XXoooooooooooooooooooooo",
"ooooXX..XXooXXoooooooooXXXXXXooo",
"oooXX. ..XXXXooooooooooooXXooooo",
"XXX..   ....XXXXXXXXXooooooooooX",
"... .... .............XXXXXXX...",
"......XX............. .......  .",
"XXXX.XXXXXooooXXXXXXX...   ....X",
"oooXXXXoooooooooooooooXX. .XXXoo",
"ooooXooooooooooooooooooXX..XXooo",
"ooooooooooooooooooooooXXX..XXooo",
"ooooooooooooooooooooXXXXX. .XXoo",
"XXXXooooXXXXXXXXXXXXXXXX.   .XXX",
"....XXXX................  .. ..."
};
