/* XPM */
static char *result[] = {
/* columns rows colors chars-per-pixel */
"32 32 7 1 ",
"  c #43403E",
". c #595652",
"X c #696A6A",
"o c #847E87",
"O c #9BADB7",
"+ c #CBDBFC",
"@ c white",
/* pixels */
"........ .......@@@@@@@@@@@@@@@@",
"XXX..   .XXXXXoX.@@@@@O@@@@@@@@@",
"oXXXX. .XXoooooX.@@@@O@O@@@@@@@@",
"ooXXX..XXXoooooo.@@@@@O@@@@@@@@@",
"ooXXX..XXXoooooo.@@@@@@@@@@@@@@@",
"ooXXX. .XXXooooX.@@@@@@@@@@@@@@@",
"XXX..   ..XXoooX++@@@@@@@@@@@@@@",
"... ............@++@@@@@@@@@@@@@",
"....XXXXXX.....@@++@@+@@@@@@@@@@",
"ooooooooooooooX.@@+O++@@@@@@@@@@",
"oooooooooooooooX.@O++O@@@@@@@@@@",
"oooooooooooooooo.@@OO@@@@@@@@@@@",
"oooooooooooooooX.@@@@@@@@@@@@@@@",
"ooooooooooooooXX.@@@@@@@@@@@@@@@",
"XXXooXXXoooXXXXX.@@@@@@@@@@@@@@@",
"................@@@@@@@@@@@@@@@@",
"..        ......@@@@@@@@@@@@@@@+",
"XX....   .XXXXXX.@@@@@@@@@@@@@@@",
"ooXXXX. .XXooooX.@@@@@@@@@@@@@@@",
"oooXXX..XXoooooo.@@@@@@@@@@@@@@@",
"ooooXX..XXooXXoo.@@@@@@@@@@@@@@@",
"oooXX. ..XXXXooX.@@@@@@@@@@@@@@@",
"XXX..   ....XXXX.@@@@@@@@@@@@@@@",
"... .... .......@@@@@@@@@@@@@@@@",
"......XX........@@@@@@@@@+@@@@@@",
"XXXX.XXXXXooooXX.@@@@@@+@+@@@@@@",
"oooXXXXooooooooX.@@@@@@+@+@@@@@@",
"ooooXooooooooooo.@@@@@@+@@@@@@@@",
"oooooooooooooooo.@@@@@@@@@@@@@@@",
"oooooooooooooooX.@@@@@@@@@@@@@@@",
"XXXXooooXXXXXXXX.@@@@@@@@@@@@@@@",
"....XXXX........@@@@@@@@@@@@@@@@"
};
