/* XPM */
static char *result[] = {
/* columns rows colors chars-per-pixel */
"32 32 6 1 ",
"  c #43403E",
". c #595652",
"X c #696A6A",
"o c #847E87",
"O c #CBDBFC",
"+ c white",
/* pixels */
"........ .................XX....",
"XXX..   .XXXXXooooooooXXXXXX.XXX",
"oXXXX. .XXooooooooooooooooooXXoo",
"ooXXX..XXXoooooooooooooooooooXoo",
"ooXXX..XXXoooooooooXoooooooooooo",
"ooXXX. .XXXoooooooXXoooooooooooo",
"XXX..   ..XXooooXXX.Xooooooooooo",
"... ................XXXXX.......",
"....XXXXXX....... ..............",
"ooooooooooooooXXX....   .XX..XXo",
"ooooooooooooooooooXXX. .XoXXXooo",
"oooooooooooooooooooXX..XooXXoooo",
"oooooooooooooooXoooXX..Xoooooooo",
"ooooooooooooooXXXoXX. .Xoooooooo",
"XXXooXXXoooXXXX.X...  ..XXXXXXXX",
".................++++++ ........",
"..        ......+++++++++++++++O",
"XX....   .XXXXX.++++++++++++++++",
"ooXXXX. .XXooooX.+++++++++++++++",
"oooXXX..XXoooooo.+++++++++++++++",
"ooooXX..XXooXXoo.+++++++++++++++",
"oooXX. ..XXXXoo.++++++++++++++++",
"XXX..   ....XXX.++++++++++++++++",
"... .... ......+++++++++++++++++",
"......XX.......++++++++++O++++++",
"XXXX.XXXXXooooX.+++++++O+O++++++",
"oooXXXXooooooooX.++++++O+O++++++",
"ooooXooooooooooo.++++++O++++++++",
"oooooooooooooooo.+++++++++++++++",
"oooooooooooooooX.+++++++++++++++",
"XXXXooooXXXXXXXX.+++++++++++++++",
"....XXXX........++++++++++++++++"
};
