/* XPM */
static char *result[] = {
/* columns rows colors chars-per-pixel */
"32 32 7 1 ",
"  c #43403E",
". c #595652",
"X c #696A6A",
"o c #847E87",
"O c #9BADB7",
"+ c #CBDBFC",
"@ c white",
/* pixels */
"........ .................XX....",
"XXX..   .XXXXXooooooooXXXXXX.XXX",
"oXXXX. .XXooooooooooooooooooXXoo",
"ooXXX..XXXoooooooooooooooooooXoo",
"ooXXX..XXXoooooooooXoooooooooooo",
"ooXXX. .XXXoooooooXXoooooooooooo",
"XXX..   ..XXooooXXX.Xooooooooooo",
"... ................XXXXX.......",
"....XXXXXX....... ..............",
"ooooooooooooooXXX....   .XX..XXo",
"ooooooooooooooooooXXX. .XoXXXooo",
"oooooooooooooooooooXX..XooXXoooo",
"oooooooooooooooXoooXX..Xoooooooo",
"ooooooooooooooXXXoXX. .Xoooooooo",
"XXXooXXXoooXXXX.X...  ..XXXXXXXX",
"..............@..  ...  ........",
"@@@@@@@@@@@@@@@@...XXXX.........",
"+@@@@@@@@@@@@@@@.XXooXXXXXXXXXXX",
"@@@@@@@@@@@@@@@.Xooooooooooooooo",
"@@@@@@@@@@@@@@@.oooooooooooooooo",
"@@@@@@@@@@@@@@@.ooXooooXXXXXXooo",
"@@@@@@@@@@O@@@@@.ooooooooXXooooo",
"@@@@@@@@@O@O@@@@.XXXXooooooooooX",
"@@@@@@@@@@O@@@@@@.....XXXXXXX...",
"@@@@@@@@@@@@@@@@@.... .......  .",
"@@@@@@@@@@@@@@@@.XoXX...   ....X",
"@@@@@@@@@@@@@@@.XoooooXX. .XXXoo",
"@@@@@@@@@@@@@@@.oooooooXX..XXooo",
"@@@@@@@@@@@@@@@.ooooooXXX..XXooo",
"@@@@@@@@@@@@@+@.XoooXXXXX. .XXoo",
"@@@@@@@@@@@@+@+.XXXXXXXX.   .XXX",
"@@@@@@@@@@@@@+@@........  .. ..."
};
