/* XPM */
static char *result[] = {
/* columns rows colors chars-per-pixel */
"32 32 9 1 ",
"  c #211F30",
". c #CC3048",
"X c #A14744",
"o c #E44A4A",
"O c #CF9E6E",
"+ c #F18B72",
"@ c #E4C997",
"# c white",
"$ c None",
/* pixels */
"$$$$$$$$$$$$$$$$$$$$$$$$$$$$$$$$",
"$$$$$$$$$$$$$$$$$$$$$$$$$$$$$$$$",
"$$$$$$$$$$$$$$$$$$$$$$$$$$$$$$$$",
"$$$$$$$$$$$$$$$$$$$$$$$$$$$$$$$$",
"$$$$$$$$$$$$$$$$$$$$$$$$$$$$$$$$",
"$$$$$$$$$$$$$$$$$$$$$$$$$$$$$$$$",
"$$$$$$$$$$$$$$$$$$$$$$$$$$$$$$$$",
"$$$$$$$$$$$$$$$$$$$$$$$$$$$$$$$$",
"$$$$$$$$$$$$$$$$$$$$$$$$$$$$$$$$",
"$$$$$$$$$$$$$$$$$$$$$$$$$$$$$$$$",
"$$$$$$$$$$$$$$$$$$$$$$$$$$$$$$$$",
"$$$$$$$$$$$$$$$$$$$$$$$$$$$$$$$$",
"$$$$$$$$$$$$$$$$$$$$$$$$$$$$$$$$",
"$$$$$$$$$$$$$$$$$$$$$$$$$$$$$$$$",
"$$$$$$$$$$$$$$$$$$$$$$$$$$$$$$$$",
"$$$$$$$                  $$$$$$$",
"$$$$$  ooooo+o+++o++++o+o  $$$$$",
"$$$$ +oooooooooooooooooooo+ $$$$",
"$$$ +oo###ooooooooooooooooo+ $$$",
"$$$ +o#####oooooooooooooooo+ $$$",
"$$ +oo#####oooooooooooo##ooo+ $$",
"$$ +oo#####oooo##ooooo####oo+ $$",
"$$ ooo.###.ooo####oooo####ooo $$",
"$$ .ooo...oooo####oooo.##.oo. $$",
"$$$ ..oo.......##........o.. $$$",
"$$$ ........................ $$$",
"$$$$ ...                ... $$$$",
"$$$$$   OOX##XOX##XOOOOO   $$$$$",
"$$$$$$$$ OOXXO@OXXO@@@O $$$$$$$$",
"$$$$$$$$$ O@       @@O $$$$$$$$$",
"$$$$$$$$$$ OO $$$$ OO $$$$$$$$$$",
"$$$$$$$$$$$  $$$$$$  $$$$$$$$$$$"
};
