/* XPM */
static char *result[] = {
/* columns rows colors chars-per-pixel */
"32 32 9 1 ",
"  c #211F30",
". c #CC3048",
"X c #A14744",
"o c #E44A4A",
"O c #CF9E6E",
"+ c #F18B72",
"@ c #E4C997",
"# c white",
"$ c None",
/* pixels */
"$$$$$$$$$$$$$$$$$$$$$$$$$$$$$$$$",
"$$$$$$$$$$$$$$$$$$$$$$$$$$$$$$$$",
"$$$$$$$$$$$$$$$$$$$$$$$$$$$$$$$$",
"$$$$$$$$$$$$$$$$$$$$$$$$$$$$$$$$",
"$$$$$$$$$$$$$$$$$$$$$$$$$$$$$$$$",
"$$$$$$$$$$$$$$$$$$$$$$$$$$$$$$$$",
"$$$$$$$$$$$$$$$$$$$$$$$$$$$$$$$$",
"$$$$$$$$$$$$$$$$$$$$$$$$$$$$$$$$",
"$$$$$$$$$$$$$$$$$$$$$$$$$$$$$$$$",
"$$$$$$$$$$$$$$$$$$$$$$$$$$$$$$$$",
"$$$$$$$$$$$$$$$$$$$$$$$$$$$$$$$$",
"$$$$$$$$$$$$$$$$$$$$$$$$$$$$$$$$",
"$$$$$$$$$$$$$$$$$$$$$$$$$$$$$$$$",
"$$$$$$$$$$$$$$$$$$$$$$$$$$$$$$$$",
"$$$$$$$$                $$$$$$$$",
"$$$$$$  oooo+o++o++++o+o  $$$$$$",
"$$$$$ +oooooooooooooooooo+ $$$$$",
"$$$$ +oo###ooooooooooooooo+ $$$$",
"$$$$ +o#####oooooooooooooo+ $$$$",
"$$$ +oo#####ooo##ooooo##ooo+ $$$",
"$$$ +oo#####oo####ooo####oo+ $$$",
"$$$ ooo.###.oo####ooo####ooo $$$",
"$$$ .ooo...ooo.##.ooo.##.oo. $$$",
"$$$$ ..oo...............o.. $$$$",
"$$$$ ...................... $$$$",
"$$$$$ ...              ... $$$$$",
"$$$$$$   OX##XOX##XOOOO   $$$$$$",
"$$$$$$$$ OOXXO@OXXO@@@O $$$$$$$$",
"$$$$$$$$$ O@@@@@@@@@@O $$$$$$$$$",
"$$$$$$$$$$ @       OO $$$$$$$$$$",
"$$$$$$$$$$ OO $$$$$  $$$$$$$$$$$",
"$$$$$$$$$$$  $$$$$$$$$$$$$$$$$$$"
};
